<?xml version="1.0" standalone="no"?>
<!DOCTYPE svg PUBLIC "-//W3C//DTD SVG 1.1//EN" "http://www.w3.org/Graphics/SVG/1.1/DTD/svg11.dtd" >
<svg xmlns="http://www.w3.org/2000/svg" xmlns:xlink="http://www.w3.org/1999/xlink" version="1.1">
<metadata>
Created by FontForge 20150318 at Thu Oct 22 00:24:10 2015
 By uniteet7
Copyright 2009 Melody Moreno, created using www.fontcapture.com
</metadata>
<defs>
<font id="TypingDazedd" horiz-adv-x="30" >
  <font-face 
    font-family="Typing Dazedd"
    font-weight="500"
    font-stretch="normal"
    units-per-em="2048"
    panose-1="2 0 6 3 0 0 0 0 0 0"
    ascent="1317"
    descent="-731"
    x-height="675"
    cap-height="1066"
    bbox="28.9643 -752.581 1293 1326"
    underline-thickness="50"
    underline-position="-100"
    unicode-range="U+0020-20AC"
  />
<missing-glyph horiz-adv-x="748" 
d="M68 0v1317h544v-1317h-544zM136 68h408v1181h-408v-1181z" />
    <glyph glyph-name=".notdef" horiz-adv-x="748" 
d="M68 0v1317h544v-1317h-544zM136 68h408v1181h-408v-1181z" />
    <glyph glyph-name=".null" horiz-adv-x="0" 
 />
    <glyph glyph-name="nonmarkingreturn" horiz-adv-x="682" 
 />
    <glyph glyph-name="space" unicode=" " horiz-adv-x="500" 
 />
    <glyph glyph-name="exclam" unicode="!" horiz-adv-x="678" 
d="M438 -10q18 19 44 3.5t26 -44.5q0 -10 -13 -18t-31 -8q-35 0 -43 21t17 46zM244 812q97 18 138.5 15t96.5 -31q72 -37 93 -115.5t-14 -173.5t-117 -177q-38 -37 -54 -70t-8 -55q18 -48 -14 -46q-26 1 -77 39q-30 23 -29 39q3 23 71 90q16 16 43 42q102 96 127.5 167.5
t-9.5 161.5q-14 36 -76.5 46t-135.5 -8t-114 -56q-68 -64 -97 -35q-19 19 5 56t73.5 69.5t97.5 41.5z" />
    <glyph glyph-name="quotedbl" unicode="&#x22;" horiz-adv-x="492" 
d="M271 522q8 20 29.5 33.5t46.5 13.5q16 0 25 -3t15.5 -9.5t6.5 -24t-2 -39.5t-7 -64q-8 -57 -22 -106.5t-25 -61.5q-31 -33 -58 21q-31 63 -25 158q3 47 16 82zM71 578q5 9 22 13.5t35 0.5q25 -5 34.5 -47t9.5 -152q0 -54 -1.5 -85t-4 -54.5t-9.5 -33.5t-15.5 -14
t-23.5 -4q-25 0 -36 13t-15.5 48t-6.5 115q-1 73 2 131.5t9 68.5z" />
    <glyph glyph-name="numbersign" unicode="#" horiz-adv-x="130" 
 />
    <glyph glyph-name="dollar" unicode="$" horiz-adv-x="696" 
d="M184 798q-3 68 5.5 95.5t32.5 27.5q28 0 39 -39t11 -143q0 -41 8 -45q11 -6 74 18q4 2 12 5q46 18 56.5 36.5t-0.5 64.5q-10 42 -4 58t33 16q22 0 34.5 -19t12.5 -52q0 -70 59 -85q24 -6 41.5 -25t17.5 -39q0 -31 -8.5 -34t-36.5 19q-47 39 -65 -16q-13 -40 -3 -119
q5 -44 24.5 -67t58.5 -32q75 -18 79.5 -70.5t-62.5 -121.5q-48 -48 -58.5 -82.5t0.5 -105.5q10 -64 4 -91.5t-33 -37.5q-28 -10 -37.5 6.5t-9.5 75.5q0 32 -0.5 46.5t-3.5 29t-5.5 18t-12.5 4.5t-19.5 -2t-29.5 -11q-20 -7 -33.5 -36t-13.5 -66q0 -85 -44 -85
q-19 0 -31.5 19t-12.5 50q0 44 -15.5 54t-72.5 1q-51 -7 -69.5 0t-18.5 34t15.5 33.5t54.5 -3.5q25 -5 39.5 -6t26 5t16.5 18t6.5 37t-1 56.5t-8.5 82.5q-4 42 -7 64.5t-9 44.5t-11.5 31t-18.5 18.5t-26.5 14t-38.5 10.5q-59 15 -82.5 47t-5.5 68t73 63q37 18 52 34.5
t20 43.5t2 84zM439 575q0 50 -14 66t-59 16q-46 0 -59.5 -16t-13.5 -69q0 -85 55 -100q56 -14 73.5 6t17.5 97zM204 569q0 25 -22 26.5t-60 -21.5q-22 -14 -24 -24.5t15 -21.5q29 -18 60 -4t31 45zM453 346q-11 42 -31 59t-59 17q-29 0 -49.5 -10.5t-20.5 -24.5
q1 -73 23 -166t38 -93q26 0 53 38.5t41 90.5t5 89zM567 319q7 18 3.5 34.5t-15.5 24.5q-11 7 -19.5 -5t-8.5 -36q0 -61 15 -58q10 2 25 40z" />
    <glyph glyph-name="percent" unicode="%" 
 />
    <glyph glyph-name="ampersand" unicode="&#x26;" horiz-adv-x="761" 
d="M89 769q82 40 196.5 19t171.5 -87q37 -44 43 -86.5t-17 -109t-88 -195.5l-76 -152l77 -125q78 -125 85 -135q4 -4 36.5 7.5t77.5 32.5q81 39 122 29q29 -7 1 -33q-10 -10 -30 -22q-35 -21 -49.5 -30t-34.5 -24.5t-26 -20t-12 -17.5t-4.5 -17.5t8 -19.5t13 -24t21.5 -30
q29 -40 40 -74.5t0 -51.5q-14 -23 -38 -27t-44 12t-25 44q-3 20 -19.5 56t-37.5 69q-29 45 -61 61.5t-92 16.5q-88 0 -151 28.5t-63 68.5q0 15 16.5 58.5t39.5 88.5l56 108l-86 163q-35 68 -65 147.5t-37 125.5q-12 71 -2.5 97t54.5 49zM371 678q-37 28 -97.5 42.5
t-95.5 2.5q-41 -13 -33.5 -92t60.5 -209l64 -153l70 115q56 92 65.5 176.5t-33.5 117.5zM330 -21q-53 91 -80 87q-22 -4 -14 -76q5 -44 23 -65.5t55 -26.5l69 -10z" />
    <glyph glyph-name="quotesingle" unicode="'" horiz-adv-x="262" 
d="M95 518q35 13 47 3q13 -11 18.5 -86.5t1 -146.5t-16.5 -71q-22 0 -41.5 28.5t-30 70t-14 85t6 77t29.5 40.5z" />
    <glyph glyph-name="parenleft" unicode="(" horiz-adv-x="367" 
d="M238 968q31 49 55 68.5t37 6.5q28 -28 -45 -100q-93 -92 -147.5 -275t-57.5 -407q-2 -212 33.5 -324.5t121.5 -166.5q43 -27 56 -71q6 -37 -21 -40q-24 0 -68 45t-85.5 111t-58.5 120q-23 70 -27.5 173t9.5 218t40.5 231.5t68 224.5t89.5 186z" />
    <glyph glyph-name="parenright" unicode=")" horiz-adv-x="351" 
d="M30 1039q0 61 46 14q61 -62 135 -224q47 -103 73 -196q34 -122 36.5 -204.5t-21.5 -285.5q-15 -125 -35.5 -243.5t-33.5 -158.5q-32 -94 -63 -129q-15 -16 -14 6q1 14 9 41q115 396 100 729.5t-156 518.5q-32 41 -54 79.5t-22 52.5z" />
    <glyph glyph-name="asterisk" unicode="*" 
 />
    <glyph glyph-name="plus" unicode="+" horiz-adv-x="130" 
 />
    <glyph glyph-name="comma" unicode="," horiz-adv-x="409" 
d="M144 261q40 90 79.5 155t55.5 65q30 0 31 -18q2 -28 -78 -184q-16 -31 -40 -77q-101 -192 -127 -194q-24 -2 39 158q17 44 40 95z" />
    <glyph glyph-name="hyphen" unicode="-" horiz-adv-x="526" 
d="M280 539q57 26 90 28t54 -19q8 -7 -21 -21q-36 -18 -99 -33q-141 -34 -192.5 -56t-51.5 25t81 49q33 0 74 8.5t65 18.5z" />
    <glyph glyph-name="period" unicode="." horiz-adv-x="276" 
d="M60 501q0 16 17.5 27.5t41.5 11.5q50 0 56 -24.5t-36 -59.5q-33 -27 -56 -14t-23 59z" />
    <glyph glyph-name="slash" unicode="/" horiz-adv-x="130" 
 />
    <glyph glyph-name="zero" unicode="0" horiz-adv-x="594" 
d="M84 719q31 68 58.5 87.5t95.5 21.5q96 3 186.5 -71t120.5 -179q25 -84 19 -192t-31.5 -214t-74.5 -206.5t-110 -168.5q-53 -59 -132.5 -50t-127.5 79q-36 53 -51 239t-2 381t49 273zM355 715q-29 11 -45 16.5t-33.5 8t-26.5 1t-22 -9.5t-23 -18t-28 -30q-36 -39 -46 -107
t-10 -268q0 -243 30 -358t93 -115q21 0 75 61t103.5 138t59.5 118q31 138 27 254.5t-45 200t-109 108.5z" />
    <glyph glyph-name="one" unicode="1" horiz-adv-x="239" 
d="M39 581q26 67 56 30q33 -40 50 -177q64 -544 64 -631q0 -56 -19 -80q-34 -42 -53 -4q-28 56 -57 392q-13 158 -26.5 276t-19 126.5t-4 28t8.5 39.5z" />
    <glyph glyph-name="two" unicode="2" horiz-adv-x="874" 
d="M250 783q59 12 117.5 3t94.5 -10q33 -2 70 -35t61 -81t24 -91q0 -176 -228 -473q-174 -227 -98 -256q13 -5 33 -5q48 0 185 29t196 51q53 20 92 18t46 -25q6 -17 -108 -57t-255.5 -73.5t-205.5 -32.5q-102 0 -114 76q-14 88 93 223q22 27 48 55q161 172 214 316t-18 216
q-34 33 -105.5 47.5t-146 4.5t-115.5 -41q-57 -44 -78.5 -42t-21.5 51q0 40 58.5 75t161.5 57z" />
    <glyph glyph-name="three" unicode="3" horiz-adv-x="853" 
d="M397 873q88 19 132 11t103 -55q29 -23 42.5 -37.5t20.5 -37.5t6 -48t-7 -74q-10 -70 -36 -124.5t-75 -104.5l-92 -95l85 -22q97 -24 172 -86t75 -119q0 -64 -89.5 -167t-186.5 -149.5t-227.5 -71t-195.5 -8.5q-76 18 -71 38q6 28 144 36h9q141 7 209 31t144 94
q30 29 56.5 48.5t34.5 19.5q7 0 21.5 21t27.5 50q20 42 16 64.5t-33 47.5q-63 52 -176.5 76.5t-190.5 2.5t-110 -3t-12 73q9 23 37.5 36.5t68.5 13.5q35 0 82.5 14t77.5 34q49 33 88.5 91.5t56.5 115.5t9.5 105.5t-43.5 62.5q-61 23 -167.5 15t-187.5 -42
q-50 -22 -84.5 -32.5t-57.5 -10.5t-33 10t-10 30q0 28 109.5 71.5t257.5 74.5z" />
    <glyph glyph-name="four" unicode="4" horiz-adv-x="799" 
d="M619 713q-3 64 -3.5 104.5t4 63.5t12 31.5t22.5 8.5q25 0 39 -38t24 -131q7 -70 19.5 -133t23.5 -82q10 -20 9 -45.5t-12 -42.5q-12 -17 -17.5 -111.5t-1.5 -209.5q1 -92 2.5 -147.5t-4 -85.5t-14.5 -40.5t-27 -13.5q-28 -5 -38 19q-13 40 -13 248q0 114 -5 199
t-11.5 91.5t-45.5 -1t-85 -23.5q-109 -37 -186.5 -52.5t-133.5 -11t-88.5 33.5t-46.5 79.5t-12 127.5q9 312 82 336q24 8 30 -22q5 -32 -5 -151q-7 -77 -3 -147t15 -92q26 -47 117.5 -50t230.5 39l132 40z" />
    <glyph glyph-name="five" unicode="5" horiz-adv-x="775" 
d="M655 891q27 10 47.5 6t32 -15t10.5 -30.5t-18 -38.5q-14 -18 -73 -28.5t-147 -10.5q-121 0 -168 -12.5t-92 -57.5q-59 -59 -87 -173t4 -165q16 -25 63.5 -36.5t139.5 -13.5q179 -3 260.5 -55t64.5 -153q-12 -75 -55 -130.5t-137 -119.5q-89 -60 -109 -47q-12 8 -12 39
q0 17 10.5 30.5t24.5 13.5q18 0 67 43.5t91 95t42 69.5q0 35 -66 54.5t-225 30.5q-65 4 -101 8t-65.5 9.5t-45.5 16t-27.5 23.5t-24.5 36q-27 48 -28.5 92.5t20.5 143.5q21 94 46.5 152.5t67.5 98t98 58t143 26.5q79 7 152 18.5t97 21.5z" />
    <glyph glyph-name="six" unicode="6" horiz-adv-x="912" 
d="M30 698q0 55 0.5 87.5t3 60t6 40.5t10.5 22t15.5 11t23 2t23 -2t16 -11.5t11 -22t5.5 -41.5t2.5 -62t0.5 -90q0 -230 60 -425q42 -140 83 -149q31 -7 49 72q20 93 91 246t121 212q31 37 64.5 62.5t65 37.5t62 14.5t54.5 -7.5t44 -28t30 -47t11.5 -65t-10.5 -81
q-13 -53 -65 -138t-113 -157t-97 -89q-29 -13 -61 -41t-51 -57q-27 -42 -58 -53t-103 -6q-49 4 -95.5 16.5t-63.5 26.5q-47 40 -91 255t-44 407zM793 551q0 162 -141 29q-38 -36 -84.5 -124t-72.5 -167.5t-10 -95.5q5 -5 51.5 35t108.5 102q148 148 148 221z" />
    <glyph glyph-name="seven" unicode="7" horiz-adv-x="682" 
d="M470 809.5q0 10.5 24 16t57 1.5l81 -9l15 -440q3 -90 4.5 -152t1 -118.5t-3 -91t-8.5 -64.5t-13 -45t-19.5 -26t-27 -14t-34.5 -3q-11 0 -18 5.5t-12.5 23t-8.5 43.5t-5 75.5t-2.5 109.5t-0.5 154v411l-96 -19q-39 -8 -93.5 -29.5t-92.5 -43.5q-57 -34 -99.5 -46
t-65.5 -0.5t-23 44.5q0 52 61.5 86.5t211.5 67.5q68 15 117.5 34t49.5 29.5z" />
    <glyph glyph-name="eight" unicode="8" horiz-adv-x="1120" 
d="M192 872q59 14 106 17q59 4 229 -31t196 -57q20 -17 24.5 -60t-7.5 -85.5t-34 -55.5q-15 -10 21 -22q37 -12 108 -21q209 -27 248 -111q34 -74 -75 -160q-93 -73 -264 -133q-156 -54 -270.5 -62t-176 31t-61.5 121q0 43 35.5 84.5t91.5 68t114 26.5q41 0 42 -7
q0 -8 -67 -49q-2 -2 -5 -3q-63 -39 -84.5 -83.5t5.5 -76.5t94 -39q57 -6 150.5 16t178 55.5t146.5 74t62 68.5q0 89 -157 119t-459 -2q-69 -7 -105 -9t-67.5 3t-51.5 16t-49 35q-50 39 -68.5 91t-7 99t53 86.5t104.5 55.5zM257 800q36 21 26 29q-2 2 -9 2q-43 2 -85.5 -53
t-35.5 -103q4 -31 31.5 -59.5t63.5 -44.5t74.5 -20t66.5 14q21 13 53.5 23t54.5 10q44 0 78.5 12.5t52 32.5t21.5 43t-12.5 47t-51.5 43q-32 17 -95.5 18t-114.5 -13.5t-51 -35.5q0 -12 -17 -20.5t-42 -8.5q-55 0 -57.5 27t49.5 57z" />
    <glyph glyph-name="nine" unicode="9" horiz-adv-x="853" 
d="M309 922q83 38 128 48.5t81 -0.5t85 -49q30 -25 60 -41.5t42 -16.5q27 0 56 -113.5t45.5 -252.5t16 -261.5t-26.5 -138.5q-69 -44 -91.5 -17.5t-17.5 145.5q3 64 -2 158.5t-15 164.5l-23 171l-138 -114q-155 -128 -235 -171.5t-144 -35.5q-45 5 -65 26.5t-31 76.5
q-14 67 20.5 151.5t103.5 158.5t151 111zM524 848q-24 63 -114 34q-89 -28 -174 -118q-75 -80 -96 -163q-18 -70 10 -96t94 0q68 27 213 152q125 107 134 139q2 8 -6 8q-18 0 -36 13t-25 31z" />
    <glyph glyph-name="colon" unicode=":" horiz-adv-x="342" 
d="M139 385q-6 17 8.5 27t43 10t43 -10t8.5 -27q-6 -14 -21 -25t-30.5 -11t-31 11t-20.5 25zM63 584q6 17 23 30.5t33.5 13.5t29 -13.5t12.5 -30.5q0 -19 -16.5 -31.5t-40.5 -12.5q-58 0 -41 44z" />
    <glyph glyph-name="semicolon" unicode=";" horiz-adv-x="422" 
d="M247 374q19 19 54 19q32 0 15 -85q-19 -100 -73 -182q-8 -13 -17 -24q-56 -68 -70.5 -52.5t28.5 96.5q18 35 31 78t13 69t5.5 49t13.5 32zM64 639q-10 26 0.5 36.5t43.5 10.5q55 0 59.5 -24t-42.5 -63q-38 -29 -44 -21q0 14 -17 61z" />
    <glyph glyph-name="less" unicode="&#x3c;" horiz-adv-x="622" 
d="M443 877q31 82 60 53q38 -37 -1.5 -128.5t-165.5 -259.5q-47 -63 -73 -98t-54 -75t-39.5 -59t-22.5 -44t-12.5 -36t0.5 -29.5t7.5 -30.5t16.5 -33q68 -132 221 -213q62 -33 62 -120q0 -35 -4.5 -61t-10.5 -26t-61.5 52.5t-129.5 126.5q-66 68 -96.5 101.5t-51 69.5
t-24.5 62t-4 74q0 73 17.5 121.5t63.5 103.5q96 114 186.5 248.5t115.5 200.5z" />
    <glyph glyph-name="equal" unicode="=" horiz-adv-x="130" 
 />
    <glyph glyph-name="greater" unicode="&#x3e;" horiz-adv-x="673" 
d="M60 918q0 51 27 55q35 6 179 -65q17 -9 38 -19q167 -85 225 -147.5t41 -140.5q-28 -125 -144 -487t-135 -382q-12 -12 -28 -10t-31 17q-19 19 4.5 120.5t102.5 339.5l141 426l-71 58q-53 44 -141.5 92t-154.5 68q-22 7 -37.5 29t-15.5 46z" />
    <glyph glyph-name="question" unicode="?" horiz-adv-x="380" 
d="M184 -124q16 17 39.5 18.5t40.5 -11t17 -33.5q0 -18 -12.5 -31.5t-29.5 -13.5q-37 0 -56.5 25t1.5 46zM66 813q24 24 45 20t37 -36.5t24 -89.5q18 -123 49 -256q41 -168 36 -198q-2 -19 -23 -27q-6 -2 -13.5 7.5t-16 29.5t-18 48.5t-19 66t-19.5 79.5q-52 244 -76 291
q-10 20 -12 38.5t6 26.5z" />
    <glyph glyph-name="at" unicode="@" 
 />
    <glyph glyph-name="A" unicode="A" horiz-adv-x="879" 
d="M273 1191q16 22 35.5 37.5t32.5 15.5q19 0 75.5 -113.5t126.5 -291.5q21 -53 42 -72.5t54.5 -18t97.5 26.5q90 34 109 10q15 -19 -34 -58q-27 -20 -66 -40q-129 -65 -135 -70q-11 -9 56 -231.5t86 -242.5q28 -29 25 -94q-3 -56 -26 -61q-4 -2 -9 0q-43 15 -90.5 127.5
t-83.5 286.5q-9 46 -14.5 68.5t-14 45.5t-14 30.5t-19.5 14.5t-26 7.5t-38 0.5q-37 0 -72.5 -6.5t-47.5 -15.5t-20.5 -92.5t-8.5 -193.5q0 -115 -4 -169.5t-13.5 -77.5t-29.5 -26q-16 -3 -25.5 5t-17 37.5t-13 78t-12.5 134.5q-5 66 -8.5 104t-9 71.5t-10 49t-13.5 27.5
t-18.5 15.5t-25.5 5.5q-41 6 -56.5 28.5t0 50t56.5 45.5q17 8 26 13.5t16.5 18t10 25t3 41.5t-1.5 59.5t-6 85.5q-9 92 -7 141.5t11 66.5t34 27q23 8 50.5 30t42.5 43zM425.5 873q-25.5 68 -50.5 121t-34 58q-23 13 -39 -38q-23 -72 -23 -219v-144l94 18q94 17 104 28
q4 4 -11 56t-40.5 120z" />
    <glyph glyph-name="B" unicode="B" horiz-adv-x="878" 
d="M30 1119q0 27 7 47t16 20q32 0 63 -42.5t31 -84.5q0 -31 13 -31q16 1 90 66q82 72 168.5 88t134.5 -32q39 -39 32.5 -151t-53.5 -204l-56 -109h62q46 0 107.5 -30t111.5 -76t66 -87q25 -64 25 -137.5t-20.5 -142t-59 -133t-87.5 -112t-110.5 -76t-123.5 -28.5
q-88 0 -188.5 56.5t-152 134.5t-45.5 128q4 37 42 23q32 -12 41 40q16 99 -55 487q-59 320 -59 386zM500 1009q0 35 -22.5 50t-60.5 6t-82 -39q-30 -22 -63 -90.5t-51.5 -145t-9.5 -118.5q3 -19 8 -26t17 -3.5t30 16.5t52 41q81 69 131.5 154.5t50.5 154.5zM696.5 505
q-38.5 36 -84.5 50t-130 14q-57 0 -93.5 -4.5t-65.5 -18.5t-43.5 -35t-22.5 -60t-7.5 -86.5t6.5 -121.5q5 -67 11 -111t16.5 -78t24 -51t36 -25.5t49 -7t66.5 10.5q61 14 115.5 48.5t93.5 79.5t63.5 99.5t30 107t-10.5 103t-54.5 86.5z" />
    <glyph glyph-name="C" unicode="C" horiz-adv-x="886" 
d="M304 1047q106 17 189.5 6t135 -50.5t51.5 -95.5q0 -69 -24 -72.5t-79 57.5q-49 54 -155.5 57.5t-178.5 -47.5q-61 -42 -105.5 -139.5t-44.5 -187.5q0 -104 51.5 -252.5t111.5 -220.5q52 -61 118 -78t130 8.5t124 92.5t101 165q22 55 49 93.5t43 38.5q24 0 32 -34.5
t-3.5 -77.5t-37.5 -63q-17 -15 -30.5 -34.5t-13.5 -31.5q0 -39 -88 -140.5t-150 -133.5q-79 -41 -150.5 -14.5t-160.5 127.5q-70 80 -116 186t-62.5 213t-7.5 214.5t41.5 193t92 145.5t137.5 75z" />
    <glyph glyph-name="D" unicode="D" horiz-adv-x="915" 
d="M388 1117q94 41 160 35t151 -63q49 -33 80 -64.5t53.5 -72t33.5 -99t15.5 -131t3.5 -182.5q-1 -194 -13 -274.5t-52 -157.5t-96 -134.5t-112.5 -86t-111 -26.5t-92.5 39q-23 23 -38.5 19.5t-41.5 -39.5q-18 -24 -35 -35.5t-24 -4t-37 140.5t-66 313l-119 604
q-35 177 -1 214q12 13 33 0q10 -6 23.5 -59.5t22.5 -123.5l22 -169l40 114q37 108 78 157.5t123 85.5zM742 920q-54 55 -96 72t-126 17q-149 0 -213 -80.5t-76 -283.5q-18 -317 75 -507q69 -140 173 -154q120 -17 239 139q15 21 30 44q38 59 53.5 101t21 102.5t5.5 189.5
q0 74 -0.5 111.5t-4 77.5t-7.5 56.5t-15.5 39.5t-23.5 36.5t-35 38.5z" />
    <glyph glyph-name="E" unicode="E" horiz-adv-x="966" 
d="M193 869q276 14 436 -24t160 -118q0 -23 -14 -29.5t-44 2.5l-112 30q-64 18 -161.5 26.5t-123.5 -1.5q-13 -6 -21.5 -32.5t-6.5 -59.5l9 -160l5 -81h292q132 0 217.5 -9t94.5 -23q18 -30 2 -41q-24 -16 -193 -29q-9 0 -20 -1q-393 -29 -393 -64q0 -34 33 -139t72 -199
t53 -100q16 -6 83 20t146 70q172 93 202 99q23 5 26 -17q1 -6 1 -19q0 -21 -104.5 -98t-221.5 -145t-150 -68q-46 0 -92 110.5t-78 300.5q-16 90 -33.5 162.5t-26.5 82.5t-11 46t4 76t0 100t-21 104q-21 64 -41 83.5t-57 14.5q-35 -5 -51 8t-21 48q-2 12 -2 20t2 15.5
t6 11.5t13.5 8.5t20 7t30 4.5t40 3.5t51.5 3.5z" />
    <glyph glyph-name="F" unicode="F" horiz-adv-x="819" 
d="M205 804q42 10 113.5 15.5t133.5 3.5q92 -3 121 -14.5t34 -48.5q5 -35 -12 -45q-24 -14 -162 -14h-21q-84 0 -149.5 -5t-73.5 -12.5t-7.5 -48t8.5 -91.5l21 -122l208 12q201 11 285.5 -4.5t84.5 -63.5q0 -57 -24 -69t-90 13q-34 13 -108 15.5t-155 -6.5l-187 -20l18 -129
q7 -53 25.5 -116.5t36.5 -98.5q27 -52 38 -123t2.5 -122t-34.5 -51q-56 0 -124 425q-15 98 -27.5 142.5t-29.5 61.5t-48 17q-34 0 -44.5 14t-5.5 52q3 26 16.5 43.5t27.5 15.5q29 -7 35 34q7 54 -31 161q-29 84 -5 119t130 60z" />
    <glyph glyph-name="G" unicode="G" horiz-adv-x="933" 
d="M234 1058q33 27 77 47t72 20q39 1 89.5 -21t86 -54t35.5 -58q0 -31 -18 -48t-43.5 -12.5t-44.5 30.5q-47 65 -130.5 39.5t-154.5 -127.5q-55 -78 -84 -189.5t-29 -217.5t29.5 -198t83.5 -133q21 -15 69 -26t94 -11q69 0 112.5 20.5t108.5 82.5q50 48 71 82.5t8 48.5
q-12 11 -89 22t-174 14q-57 2 -91 4t-63 5.5t-43 7.5t-23.5 11.5t-12 16t-2.5 23.5q0 35 24.5 50t99.5 25q90 12 311.5 -16.5t248.5 -56.5q8 -7 10.5 -103t-1.5 -224q-9 -309 23 -348q18 -25 18.5 -55t-16.5 -55t-42 -25q-35 0 -54.5 110.5t-19.5 303.5v194l-132 -128
q-63 -60 -98 -85t-71.5 -33.5t-103.5 -8.5q-160 0 -231.5 74t-94.5 263q-20 168 2 345.5t70 230.5q18 20 30.5 40.5t12.5 31.5q0 10 23.5 37t56.5 54z" />
    <glyph glyph-name="H" unicode="H" horiz-adv-x="963" 
d="M51 1024q52 62 76 4q13 -33 13 -101q0 -44 6 -97t13 -81q6 -20 12 -31t15 -19t29 -8.5t44 1t69 6.5q150 18 213 18q17 0 25.5 0.5t15.5 4.5t8.5 9.5t0 19t-6 27.5t-12.5 41q-17 56 -17 87t17 49q37 36 67 9t30 -97.5t39 -112t99 -35.5q72 7 99 -3t27 -43
q0 -23 -25.5 -33.5t-80.5 -10.5q-61 0 -68 -3q-24 -7 -21 -51q2 -37 51 -274q1 -8 3 -16q24 -117 15 -180.5t-50 -63.5q-12 0 -21 16.5t-9 38.5t-5.5 43.5t-13.5 29.5t-15.5 56t-11.5 110q-3 49 -4 73.5t-6 58t-7 46.5t-12.5 32.5t-16 25t-25 14t-32.5 8.5t-44.5 0.5
t-54 -1.5t-69.5 -6q-223 -19 -232 -26q-3 -3 4.5 -55t22.5 -120q18 -88 36.5 -126t39.5 -35q51 9 51 -30q0 -37 -44 -94q-63 -81 -97 -28q-30 45 -52 207l-56 417q-13 95 -27 170.5t-21 88.5q-8 12 -3 32t19 38z" />
    <glyph glyph-name="I" unicode="I" horiz-adv-x="790" 
d="M294 1052q44 10 198 13q32 1 49.5 1t36.5 -1t28 -2.5t18.5 -6t12.5 -9t6 -13.5t3.5 -18t0.5 -24q0 -50 -14 -61t-67 -1q-33 6 -81.5 5.5t-81.5 -6.5l-27 -6t-19.5 -7t-14.5 -8t-8 -13.5t-4.5 -18.5t0.5 -28t2.5 -36.5t5.5 -48.5q18 -150 66 -422l49 -271h157
q27 0 45.5 -0.5t35.5 -1.5t27 -3t19.5 -4.5t13 -6.5t7 -9t2 -11.5t-1.5 -15.5q-3 -17 -14 -26.5t-46 -16.5t-88.5 -10.5t-153.5 -6.5q-121 -3 -215 -13.5t-105 -21.5q-20 -16 -43.5 -14.5t-43 19.5t-19.5 42q0 40 43.5 63t147.5 38q48 6 81.5 19.5t31.5 24.5q-4 28 -38 410
t-43 390q-3 4 -26.5 -1t-52.5 -16q-68 -25 -106 -11.5t-38 64.5q0 31 24 47t86 26q110 18 154 28z" />
    <glyph glyph-name="J" unicode="J" horiz-adv-x="1000" 
d="M206 1159q70 13 257.5 19.5t347 1.5t159.5 -18q0 -46 -62 -70t-179 -24h-168l108 -213q66 -132 86.5 -207t21.5 -188q1 -165 -55 -253t-202 -148q-86 -36 -130.5 -40.5t-115.5 16.5q-126 38 -185 101.5t-59 162.5q0 64 19 105.5t69 90.5q67 64 99 65q22 1 0 -32
q-13 -20 -40 -47q-25 -25 -48 -68t-30 -76q-17 -90 64 -149.5t219 -59.5q93 0 162.5 31t110 85.5t53.5 131t-2.5 166t-62.5 192.5t-122 208q-22 31 -31 44t-26 31.5t-22 24t-22 14t-24 9t-30 1.5t-37.5 -0.5t-48.5 -4.5q-62 -6 -119.5 -16t-79.5 -20q-51 -22 -51 23
q0 42 38.5 66.5t137.5 44.5z" />
    <glyph glyph-name="K" unicode="K" horiz-adv-x="867" 
d="M47 1027q36 43 55 16q27 -39 60 -283q16 -115 35.5 -197t32.5 -82q55 0 405 299q146 125 177 136q22 7 25 -21v-15q0 -20 -92.5 -112t-212.5 -193.5t-191 -145.5q-76 -48 -88 -57q-17 -12 70 -70q77 -51 215 -122q108 -56 144.5 -88t31.5 -66q-4 -30 -19 -41.5t-48.5 -5
t-84 31.5t-130.5 72q-68 40 -120 67t-55 24q-7 -7 39 -142q26 -80 29 -120.5t-17 -76.5q-42 -79 -79 -16q-33 57 -50 213q-8 79 -24 154.5t-30 100.5t-24.5 91t-12 132t-12.5 160.5t-26 159.5q-19 88 -20 132t17 65z" />
    <glyph glyph-name="L" unicode="L" horiz-adv-x="868" 
d="M34 970q7 17 10.5 24.5t8 12.5t10.5 -0.5t13 -13t20 -25.5q16 -23 33.5 -79.5t24.5 -111.5q18 -135 44.5 -267t44.5 -282q5 -40 8 -62.5t9 -49t9 -39t13.5 -27.5t17.5 -19.5t25 -10t31 -4.5t41.5 3t51 6.5t64.5 11.5q74 14 119 21.5t83.5 12.5t57.5 5.5t34 -3t20.5 -9.5
t9.5 -18q6 -17 -25 -39.5t-87.5 -43.5t-124.5 -39.5t-143.5 -30.5t-137.5 -12l-135 -2l-35 249q-36 250 -86 519q-20 110 -28.5 205t-0.5 118z" />
    <glyph glyph-name="M" unicode="M" horiz-adv-x="1240" 
d="M44 910q16 44 32 52.5t48 -8.5q109 -59 311 -423q45 -82 83 -139.5t46 -57.5q21 0 70.5 95.5t97.5 227.5q46 128 100 199.5t88 51.5q35 -22 69 -112.5t101 -344.5q30 -114 60 -206.5t42 -107.5q18 -25 18 -53t-18.5 -50.5t-45.5 -22.5q-32 0 -54.5 40.5t-22.5 100.5
q0 48 -79 300t-102 278q-11 12 -17.5 10t-6.5 -17q0 -14 -27 -83t-64 -150q-91 -200 -118 -266q-10 -27 -27 -46.5t-28 -19.5q-26 0 -113.5 127t-178.5 299q-113 211 -136 212q-13 0 -1 -66q49 -255 74.5 -496t4.5 -261q-39 -39 -66 19q-23 50 -50 195q-95 519 -102 612
q-5 64 12 111z" />
    <glyph glyph-name="N" unicode="N" horiz-adv-x="987" 
d="M100 779q28 21 47.5 33t43.5 16.5t43 0t47.5 -23t54.5 -43.5t67.5 -71.5t83.5 -98.5t104 -132q88 -112 159.5 -192.5t84.5 -80.5q14 0 16 52.5t-8 155t-31 250.5q-16 111 14 141q21 20 55 -20q16 -19 37.5 -176.5t33 -323.5t1.5 -205q-5 -20 -15 -35t-18 -15
q-21 0 -210.5 199.5t-301.5 337.5q-119 149 -161 140.5t-23 -178.5q9 -73 27 -160t35 -136q42 -119 41.5 -205t-42.5 -86q-18 0 -37.5 33.5t-33.5 91.5q-31 124 -108 401l-76 276z" />
    <glyph glyph-name="O" unicode="O" horiz-adv-x="777" 
d="M183 841q24 21 70 36t85 15q79 0 154 -51.5t130.5 -136t90 -199.5t34.5 -236q1 -96 -10 -155.5t-43 -99.5t-82 -58t-133 -26q-92 -8 -132.5 4t-102.5 67q-69 62 -141.5 214.5t-72.5 235.5q0 78 53.5 214.5t99.5 175.5zM553 686q-39 54 -73 71t-98 17q-127 0 -181 -74.5
t-54 -250.5q0 -199 82.5 -318t220.5 -120q56 -1 116 39t99.5 101t39.5 118q0 86 -45 210t-107 207z" />
    <glyph glyph-name="P" unicode="P" horiz-adv-x="699" 
d="M41 848q7 17 20.5 30.5t25.5 13.5q26 0 42 -54t36 -210q17 -126 24 -131q3 -2 8 9q5 10 19 56q12 39 41.5 89.5t58.5 81.5q44 48 77 59.5t99 1.5q44 -7 82 -23t48 -32q32 -50 43.5 -176.5t-9.5 -190.5q-15 -47 -65.5 -97.5t-113.5 -83.5t-111 -33q-61 0 -66.5 -35.5
t40.5 -123.5q34 -66 26.5 -100.5t-56.5 -34.5q-17 0 -38 40.5t-37 102.5q-22 85 -46 120t-76 54q-64 24 -79.5 68.5t29.5 73.5q13 8 30.5 2t27 -21.5t23 -22t21.5 1.5q7 7 -10.5 86.5t-50 183t-51 190.5t-12.5 105zM582 604q-15 45 -46.5 68t-68 21.5t-75 -27.5t-67.5 -74
q-35 -58 -51.5 -141t-6.5 -144t43 -61q50 0 99 22.5t86 59t64 84t32 96.5t-9 96z" />
    <glyph glyph-name="Q" unicode="Q" horiz-adv-x="958" 
d="M383 814q11 4 31 10q103 31 132 33t100 -18q14 -4 22 -6q67 -19 122 -74.5t87 -134.5t45.5 -168t-0.5 -183.5t-54 -173.5q-24 -46 -50.5 -86t-39.5 -48q-31 -19 16 -89q25 -39 36 -76t4.5 -60t-28.5 -23q-12 0 -35 25.5t-44 62.5q-30 53 -52 66.5t-57 0.5
q-94 -36 -224.5 -19t-189.5 73q-58 54 -99.5 137t-60 170t-12.5 174.5t39 152.5q57 112 119.5 163.5t192.5 90.5zM724 713q-75 41 -227 23q-131 -16 -186 -58q-32 -25 -16 -50q14 -23 7.5 -45t-24 -26.5t-39.5 9.5q-19 16 -39 3t-49 -62q-31 -51 -37.5 -100t5.5 -135
q10 -75 39 -138.5t70.5 -107t94.5 -70t111 -27t120 21.5l79 31l-93 188q-97 195 -65 259q10 22 38 22q11 0 29.5 -35t31.5 -83.5t39 -110t48 -96.5l54 -89l60 77q47 59 67 151t12.5 180t-42 163.5t-88.5 104.5z" />
    <glyph glyph-name="R" unicode="R" horiz-adv-x="822" 
d="M234 716q75 75 150.5 83.5t172.5 -46.5q59 -34 75 -64.5t16 -112.5q0 -77 -19.5 -122.5t-83.5 -116.5q-41 -46 -103.5 -95t-104.5 -70q-29 -13 -50 -28t-29.5 -27.5t-1.5 -18.5q10 -11 90.5 -39t183.5 -58q119 -35 187 -65t72 -51q13 -62 -37 -60q-40 1 -125 43
q-48 24 -114.5 46t-111.5 29q-23 4 -35 6t-26 2.5t-19.5 0t-12 -4.5t-7.5 -8.5t-2 -15t0 -20t3 -27.5q8 -75 -23 -85q-27 -9 -57 40q-17 28 -29 68q-12 44 -35.5 91.5t-44.5 70.5q-44 48 -48.5 84t31.5 49q17 6 11 65.5t-38 193.5q-24 101 -34 182.5t0 91.5q29 33 57 -1
q27 -34 27 -101q0 -73 23 -73q3 0 7 2q13 8 16.5 20.5t-3.5 25.5q-7 12 13.5 45t58.5 71zM554 651q-27 27 -80.5 34t-107.5 -8t-82 -46q-46 -51 -74.5 -166t-12.5 -181l16 -65l115 60q92 49 176.5 143.5t84.5 149.5q0 17 -10.5 41t-24.5 38z" />
    <glyph glyph-name="S" unicode="S" horiz-adv-x="794" 
d="M224 934q90 33 239 42t234 -13q35 -10 51 -31.5t16 -58.5q0 -49 -10 -55t-52 16q-81 45 -245 41.5t-245 -51.5q-63 -37 -70 -58q-9 -29 59 -75q52 -35 222 -128q212 -115 281.5 -197t41.5 -182q-26 -89 -105.5 -148.5t-193.5 -74.5q-87 -11 -169 7t-139 55.5t-85 93
t-13 114.5q8 31 22.5 52.5t28.5 21.5q13 0 18 -17.5t-1 -41.5q-10 -40 7.5 -76.5t53.5 -62.5t87.5 -42.5t106.5 -19.5t112.5 9.5t102.5 41.5q89 56 96.5 111.5t-67 120.5t-243.5 154q-192 100 -263.5 161.5t-71.5 125.5q0 53 42 88.5t152 76.5z" />
    <glyph glyph-name="T" unicode="T" horiz-adv-x="941" 
d="M353 679q0 9 82 15.5t197 6.5q279 0 279 -32q0 -41 -49 -72t-104 -26q-67 7 -167 2l-100 -4l19 -123q19 -122 52.5 -272t54.5 -207q19 -55 6.5 -93.5t-50.5 -38.5q-34 0 -53.5 64t-19.5 177q0 44 -8.5 96t-19.5 80q-28 67 -46 180l-17 113l-124 -16q-123 -16 -189 -35
q-35 -10 -50.5 -4.5t-15.5 29.5q0 21 51 54.5t118.5 58.5t109.5 25q18 0 31 6.5t13 15.5z" />
    <glyph glyph-name="U" unicode="U" horiz-adv-x="851" 
d="M43 927q56 105 77 -60q8 -70 11 -192q5 -190 31 -332.5t82 -284.5q8 -22 13.5 -33.5t12 -20.5t11 -11t12.5 0.5t16 8.5t21 19q71 64 140 221t103.5 322.5t12.5 253.5q-10 40 -3.5 61t31.5 31q19 7 36 8t24 -6q20 -19 89 -455t57 -467q-42 -109 -83 83q-13 58 -25 144
q-16 110 -32 187t-23.5 77t-32 -53.5t-51.5 -128.5q-87 -245 -200 -365q-92 -98 -151 -57q-18 12 -31 37q-21 41 -45 127.5t-44.5 190t-37 217.5t-25.5 211.5t-8.5 170.5t12.5 96z" />
    <glyph glyph-name="V" unicode="V" horiz-adv-x="905" 
d="M695 511.5q0 48.5 8.5 82.5t20.5 34q17 0 38.5 -27t32.5 -58t0 -42q-7 -7 1 -96.5t27 -208.5q60 -376 51 -543q-5 -82 -92 -29q-93 56 -314 284q-264 273 -359 391t-75 150q26 41 64 27t77 -80q21 -35 118 -145.5t213 -229.5l280 -289l-19 263q-8 108 -21.5 205.5
t-24.5 126.5q-11 28 -18.5 82t-7.5 102.5z" />
    <glyph glyph-name="W" unicode="W" horiz-adv-x="1286" 
d="M61 475q35 35 57.5 14t40.5 -105q8 -39 45 -126t81 -171q76 -143 110 -202.5t84 -137.5q16 -24 31 30q15 53 34 199q28 207 82 326.5t119 119.5q16 0 72 -88t119 -211q149 -293 183 -341q35 -49 44 -9q7 39 -6 276q-11 165 -6.5 261t22.5 133.5t57 37.5q12 0 20 -208.5
t6 -430.5t-14 -254q-22 -57 -64.5 -43.5t-81.5 90.5q-48 97 -82 136.5t-153 260.5q-49 90 -91.5 156t-53.5 68q-26 5 -48 -116.5t-29 -304.5q-5 -152 -27 -237.5t-55 -85.5q-19 0 -112.5 130.5t-196 297t-144.5 259.5q-45 102 -60.5 149t-12 74t29.5 53z" />
    <glyph glyph-name="X" unicode="X" horiz-adv-x="903" 
d="M65 798q15 14 23.5 21t19.5 9.5t19.5 -1.5t23.5 -17.5t29.5 -30.5t39.5 -49q83 -102 206 -239l124 -136l79 208q109 286 175 263q9 -2 17 -10q11 -12 -13 -91t-70 -187l-109 -251l126 -188q188 -279 77 -316q-15 -5 -33.5 8t-27.5 35q-22 57 -110 194.5t-102 137.5
q-7 0 -52.5 -63.5t-104.5 -153.5q-126 -194 -189 -256t-113 -43q-17 7 -23.5 13t-2 19.5t18.5 31t44 50.5q68 72 183 241t139 231q17 44 -206 267q-92 93 -157.5 165t-65.5 81q0 22 35 57z" />
    <glyph glyph-name="Y" unicode="Y" horiz-adv-x="717" 
d="M556 929q1 8 21.5 15t47.5 7q34 0 43 -13q18 -23 19 -161q0 -60 -2 -245q-6 -418 -20.5 -667.5t-16.5 -301.5q-1 -24 -17.5 -37.5t-45.5 -13.5q-16 0 -24.5 1t-16 8t-9.5 16t-2.5 31t1.5 46t6 68q27 276 21 508q-1 30 -6.5 51.5t-19 45t-46.5 57t-75.5 72t-119.5 104.5
q-110 95 -187 174.5t-77 97.5q0 54 55 39q69 -19 169 -124q86 -90 193 -187.5t120 -97.5q5 16 5 108t-4 208.5t-9 138.5q-6 30 -3 52z" />
    <glyph glyph-name="Z" unicode="Z" horiz-adv-x="1323" 
d="M98 1158q32 14 108 17t159 -4t161.5 -22.5t117.5 -35.5q83 -43 131 -111.5t48 -144.5q0 -33 -30.5 -122.5t-72.5 -182t-72.5 -176t-30.5 -108.5q0 -35 16 -43q24 -13 156 -3q24 2 63 5q97 8 188.5 22t122.5 26q66 26 98 11.5t32 -69.5q0 -53 -66.5 -51.5t-333.5 -22.5
q-110 -10 -212 -10.5t-136 7.5q-53 14 -63.5 32t0.5 75q7 36 39 115t68 154q86 174 105 299t-33 175q-48 48 -172 80t-201 16q-203 -42 -233 -40q-22 1 -24 19q-1 5 -1 18q0 20 19.5 41.5t48.5 33.5z" />
    <glyph glyph-name="bracketleft" unicode="[" horiz-adv-x="405" 
d="M155 -491q94 40 111 38q15 -1 21 -29l3 -15q9 -57 -32 -95.5t-131 -57.5q-64 -13 -80.5 -6t-16.5 49q0 34 28.5 60.5t96.5 55.5zM318 1318q20 20 41 -10q24 -36 13 -78q-1 -2 -1 -3q-18 -56 -111 -62q-37 -2 -69 -9t-38 -13.5t-10.5 -243.5t-5 -565t-8 -560.5
t-17.5 -232.5q-11 0 -17.5 40t-11 165.5t-6 322.5t-2.5 547l-1 678l115 5q46 1 84.5 7t44.5 12z" />
    <glyph glyph-name="backslash" unicode="\" horiz-adv-x="130" 
 />
    <glyph glyph-name="bracketright" unicode="]" horiz-adv-x="456" 
d="M46.5 1310.5q6.5 6.5 64.5 9.5t133 1l182 -6v-916v-917h-148q-62 0 -115.5 -10t-67.5 -25q-20 -20 -28 -17t-8 29q0 47 74.5 94t157.5 53q64 5 87 44t-16 77q-16 16 -13.5 384t20.5 707q7 126 3.5 222t-15.5 113q-27 41 -177 37q-68 -2 -97.5 1t-41 13.5t-11.5 35.5
q0 22 5 43t11.5 27.5z" />
    <glyph glyph-name="asciicircum" unicode="^" horiz-adv-x="130" 
 />
    <glyph glyph-name="underscore" unicode="_" 
 />
    <glyph glyph-name="grave" unicode="`" 
 />
    <glyph glyph-name="a" unicode="a" horiz-adv-x="829" 
d="M224 707q32 27 80.5 47t81.5 20q45 0 106.5 -27.5t105 -66t43.5 -67.5q0 -18 12 -41.5t29 -40.5q24 -24 58 -184t51 -317t0 -175q-39 -39 -66 9q-25 43 -25 132q0 144 -39 145q-27 1 -62 -68q-59 -115 -154 -178t-197 -55q-126 10 -177.5 106.5t-37.5 299.5
q21 317 191 461zM536 636q-26 26 -42 40t-34.5 23.5t-31.5 11t-34.5 -5t-42 -17.5t-53.5 -31q-102 -63 -149 -167.5t-47 -267.5q1 -169 52 -240.5t153 -46.5q54 14 125.5 75t126.5 132t82.5 138t2.5 92q-13 14 -22.5 45.5t-9.5 64.5t-22 77.5t-54 76.5z" />
    <glyph glyph-name="b" unicode="b" horiz-adv-x="878" 
d="M30 459q0 101 9.5 135t37.5 34q26 0 33 -18t-3 -65q-11 -53 3 -202.5t39 -274.5t42 -116q13 6 23.5 26t13.5 42q13 86 62 175t104 125q84 55 193 33t187 -110q55 -61 67 -100.5t3 -122.5q-13 -117 -91.5 -226.5t-179.5 -151.5q-42 -17 -118 -25.5t-150 -4.5l-172 8
l-21 218q-8 90 -23 188t-28 146q-13 50 -22 133t-9 154zM658 247q-99 38 -164 22t-122 -91q-59 -76 -97.5 -194t-38.5 -217v-25.5t3 -19t5.5 -14.5t12 -9t17.5 -6.5t27.5 -3t36.5 -1.5h49q73 0 109 7.5t67 29.5t84 78q65 68 100 138t36.5 129t-30.5 106t-95 71z" />
    <glyph glyph-name="c" unicode="c" horiz-adv-x="798" 
d="M325 512q68 27 142 25t105 -33q24 -24 31.5 -65t-4 -73t-36.5 -32q-18 0 -31 17t-13 42q0 68 -70 60q-77 -10 -177 -95q-116 -97 -152 -203q-2 -5 -3 -9q-18 -70 -16 -147.5t25.5 -148t57.5 -95.5q67 -49 177.5 -36t192.5 79q67 55 94 84t37 54.5t10 68.5q0 37 11.5 54
t28.5 7t30 -43q8 -20 -3.5 -61t-36.5 -80q-47 -77 -115 -133t-139 -83t-144 -29t-132.5 21t-102.5 75.5t-56 127.5q-14 84 5 188.5t60 197t101.5 166t122.5 99.5z" />
    <glyph glyph-name="d" unicode="d" horiz-adv-x="823" 
d="M671 839q34 56 69 -69q15 -54 31 -145q24 -139 21.5 -196.5t-38.5 -157.5q-30 -85 -37.5 -159t2.5 -186q16 -187 -16 -250q-17 -33 -43 -8q-8 8 -12 56.5t-1 110t-1.5 104t-14.5 42t-46.5 -31t-80 -75t-88.5 -82.5t-67 -50q-58 -32 -146.5 -6.5t-127.5 84.5
q-30 47 -40.5 140.5t2.5 190.5t45 151q35 59 102 104t136 63.5t130 7.5t85 -55q19 -35 16 -47t-30 -12q-20 0 -33 8.5t-13 21.5q0 28 -45.5 31t-108 -18.5t-104.5 -57.5q-90 -76 -123 -177.5t0 -200.5q24 -71 72.5 -102t138.5 -33q20 0 75 37t114 91l143 127l9 361
q3 150 10.5 263.5t14.5 124.5zM756 407.5q8 41.5 5 94.5t-16 87q-16 48 -22 48q-7 1 -9 -70q0 -18 -1 -47q-1 -61 -7.5 -121t-14.5 -81q-14 -37 -1 -37q5 0 14 6q14 9 29 44t23 76.5z" />
    <glyph glyph-name="e" unicode="e" horiz-adv-x="958" 
d="M566 568q50 16 78 21.5t49.5 2t33.5 -15t26 -36.5q48 -90 -0.5 -158t-215.5 -147q-88 -42 -166 -74t-101 -37q-35 -6 -59 -47.5t-28 -98.5t11 -120q14 -47 28 -72.5t40.5 -42t62 -21.5t97.5 -5q64 0 164 34t176.5 79t79.5 75q3 33 7 74q4 34 23 47.5t37.5 -1t18.5 -49.5
q0 -39 -48.5 -103t-120 -123.5t-134.5 -85.5q-79 -33 -219.5 -31.5t-185.5 35.5q-115 88 -115 281q0 118 -44 142q-29 17 -31 48t20.5 51.5t54.5 10.5q29 -9 56 11.5t62 77.5q56 90 155 170.5t188 107.5zM690 484q-17 10 -42.5 18t-42.5 8q-57 -1 -162.5 -72.5
t-143.5 -135.5l-50 -83l141 47q150 49 251 127q78 60 54 87q-2 2 -5 4z" />
    <glyph glyph-name="f" unicode="f" horiz-adv-x="714" 
d="M371 502q86 22 160 14t94 -41q12 -18 9 -46.5t-13 -56t-27.5 -47.5t-34.5 -20q-23 0 -29 14t3 44q10 36 -1.5 47.5t-57.5 11.5q-101 0 -175 -54t-90 -140q-8 -42 -9.5 -77t4.5 -41.5t72 -2t154 18.5q204 32 240 10q21 -12 9 -46q-7 -16 -54 -26.5t-120 -12.5
q-160 -5 -231 -22q-19 -5 -28.5 -8t-18 -11.5t-10.5 -16.5t-2 -28.5t3 -41t9 -60.5q24 -149 43 -210.5t-13 -40.5q-13 8 -22.5 4.5t-9.5 -16.5t-9 -17.5t-21 2.5q-13 8 -17 19.5t2 21.5q12 19 -7 102t-52.5 170.5t-59.5 115.5q-22 24 -28.5 48.5t4.5 40.5q9 16 17 44t9 52
q4 77 7 117.5t8.5 66t11.5 32.5t17 7q12 0 21.5 -37t10.5 -88l3 -125l22 112q20 101 63 146.5t144 71.5z" />
    <glyph glyph-name="g" unicode="g" horiz-adv-x="714" 
d="M373 369q84 11 142.5 -10t66.5 -63q6 -31 -8 -32q-13 -1 -67 26q-47 23 -88.5 26t-101.5 -13q-110 -30 -156.5 -90t-37.5 -161q5 -68 24 -99t68 -55q54 -26 112.5 -26t109 23t91.5 62.5t65 96t24 118.5q0 93 27 140q18 30 28 1q5 -14 6 -44q11 -244 1.5 -485.5
t-31.5 -309.5q-25 -76 -67.5 -130t-91.5 -78t-102.5 -17t-98.5 48q-57 52 -52 74q4 21 53 -11q5 -4 11 -7q105 -74 178 -26t130 229q17 53 29 156.5t11.5 186.5t-13.5 83q-7 0 -34 -21.5t-60 -52.5q-75 -69 -172 -91t-182 8t-127 104q-30 52 -30 86.5t29 115.5
q35 100 117.5 162t196.5 76z" />
    <glyph glyph-name="h" unicode="h" horiz-adv-x="939" 
d="M30 754q0 82 24 79q24 -4 48 -83q15 -50 22 -111q25 -211 61 -405t51 -194q7 0 27.5 43t42.5 104q76 209 164 271.5t206 -10.5q43 -26 85 -84.5t72.5 -131t51.5 -153.5t23 -152t-13 -127q-19 -61 -38 -56q-28 8 -33 143q-1 21 -1 45q0 121 -16.5 179t-75.5 147
q-111 167 -212 136t-165 -254q-32 -112 -83.5 -214t-81.5 -112q-32 -11 -52 238q-7 104 -25.5 231t-37.5 204q-18 77 -31 155t-13 112z" />
    <glyph glyph-name="i" unicode="i" horiz-adv-x="377" 
d="M153 390q43 72 77 8q25 -48 37 -158q8 -75 22 -137t26 -74q14 -14 23.5 -62t8.5 -90t-14 -42q-12 0 -57 -18q-26 -10 -39.5 11t-23.5 85q-18 113 -49 279q-13 68 -16 126t5 72zM35 830q9 15 29 22.5t40 3.5q36 -7 54 -48q16 -39 -4 -55q-8 -7 -21 -7q-48 1 -81.5 29.5
t-16.5 54.5z" />
    <glyph glyph-name="j" unicode="j" horiz-adv-x="613" 
d="M365 443q28 72 70 26q41 -45 76 -182q106 -420 58 -684q-37 -204 -158 -242q-68 -22 -155 15q-86 36 -156 123.5t-70 159.5q0 52 26 52q26 -1 49 -49q10 -20 17 -44q20 -75 74 -119t128 -44q34 -1 55.5 3.5t39 20t26.5 38.5t15.5 67.5t8 98.5t1.5 140q0 176 -12 267
t-48 174q-24 57 -37.5 110t-7.5 69z" />
    <glyph glyph-name="k" unicode="k" horiz-adv-x="744" 
d="M485 769q41 40 68 32q14 -4 14 -24q0 -46 -23.5 -83t-52.5 -37q-25 0 -35 18t-2 44.5t31 49.5zM56 782q-13 172 -3 203q13 23 41 24q49 0 70 -94.5t21 -310.5v-185l81 43q33 17 72 48t60 56q39 48 84.5 58.5t67.5 -23.5q11 -18 -25 -63t-94 -90t-105 -62
q-33 -11 -57.5 -27.5t-24.5 -27.5t23 -23.5t56 -20.5q201 -44 296 -80.5t95 -69.5q0 -28 -23 -32q-36 -7 -238 43q-30 7 -71 17q-45 12 -68 17.5t-46 8.5t-32 2.5t-18.5 -6t-12.5 -13t-8 -22.5q-7 -22 -7 -60.5t7 -67.5q18 -72 -21 -72q-47 0 -77.5 43.5t-30.5 109.5
q0 33 -8 76.5t-19 73.5q-26 70 14 149q16 33 24.5 66.5t4.5 48.5q-10 35 -28 263z" />
    <glyph glyph-name="l" unicode="l" horiz-adv-x="204" 
d="M33.5 842q5.5 10 19 13.5t26.5 -1.5q33 -11 53.5 -132.5t34.5 -381.5q11 -205 1 -242q-16 -26 -42 -28q-15 0 -24.5 4.5t-16.5 15t-10 34.5t-5 56.5t-3 87.5q-3 198 -25 374q-9 73 -11.5 131.5t3 68.5z" />
    <glyph glyph-name="m" unicode="m" horiz-adv-x="1253" 
d="M33 810q33 52 59 -6q13 -29 21 -82q17 -109 38 -300l20 -191l38 182q25 120 47.5 184t50.5 91.5t70 27.5q120 0 250 -250q46 -89 60 -88q2 0 3 4q0 14 25.5 51t60.5 74q70 75 150.5 89t133.5 -39q30 -30 59.5 -85t51 -115.5t36.5 -124t15.5 -110t-12.5 -73.5
q-29 -45 -53 -16q-25 31 -25 113q0 76 -29.5 154.5t-75 129.5t-89.5 51q-63 0 -123.5 -84t-82.5 -201q-7 -40 -24 -76.5t-35 -51.5q-26 -21 -34 -1q-7 19 -7 95q0 128 -77 281q-115 227 -195 163q-86 -69 -153 -492q-18 -110 -35 -158t-40 -48q-25 0 -35 45.5t-12 174.5
q-2 91 -12.5 220.5t-23.5 218.5q-12 91 -17 162t1 81z" />
    <glyph glyph-name="n" unicode="n" horiz-adv-x="958" 
d="M33 725q33 55 67 -16q47 -98 56 -325q1 -22 1 -44q1 -51 8 -87t16 -36t40 46t65 112q112 214 234 286.5t244 -1.5q41 -26 62.5 -53.5t37 -75.5t35.5 -150q27 -139 28.5 -191t-22.5 -83.5t-31 -17.5q-7 16 -8 122q-1 81 -24.5 169t-60.5 151t-76 77q-88 34 -191 -56
t-191 -277q-53 -112 -79 -165t-47.5 -90t-32 -46.5t-25.5 -14.5q-21 -7 -30 30q-9 36 -10 129q-1 72 -13 182t-28.5 195.5t-23.5 152.5t-1 77z" />
    <glyph glyph-name="o" unicode="o" horiz-adv-x="726" 
d="M79 760q23 32 46.5 46t63.5 19.5t123 6.5q89 0 130.5 -6t72.5 -24.5t82 -66.5q33 -32 52 -53t32 -45.5t15 -44t-5 -50.5t-21 -62t-39 -81q-57 -111 -139.5 -198t-168 -126.5t-149.5 -19.5q-45 15 -82 108t-52 206.5t-6.5 226.5t45.5 164zM547 724q-57 38 -161.5 57
t-152.5 1q-62 -23 -91 -53.5t-38 -83.5t-3 -150q10 -135 27 -206t48 -101t86 -30q48 0 97.5 29t119.5 98q141 139 158.5 253t-90.5 186z" />
    <glyph glyph-name="p" unicode="p" horiz-adv-x="861" 
d="M409 848q68 36 169 40t160 -28q45 -24 69 -62.5t24 -84.5t-16.5 -96.5t-53 -100.5t-84 -95.5t-111.5 -83t-134 -60.5q-31 -10 -49.5 -18t-32.5 -20t-18.5 -24t-3.5 -33t7.5 -45t20.5 -61q13 -40 17 -89.5t-4 -81.5q-14 -57 -33.5 -58t-31.5 55l-23 115q-48 229 -128 229
q-22 0 -47.5 10t-40.5 25q-12 13 -21 31.5t-12 37.5t-1.5 35t9 26.5t20 10.5t21 -17t8.5 -42q0 -58 56 -58q16 0 24 2t13.5 7.5t5 18.5t-4 30t-12.5 47q-16 59 -18.5 118t8 94t31.5 29q13 -4 19 -12t3 -17q-10 -32 -1 -28q17 6 57 83q7 13 14 27q20 42 57 84.5t68 59.5z
M708 796q-50 40 -129.5 34t-160.5 -56q-85 -51 -120.5 -132t-26.5 -202q2 -35 3.5 -50.5t7 -32t10.5 -21t19.5 -8.5t28 -3t43.5 4q87 9 165.5 64t163.5 167q60 79 59 133.5t-63 102.5z" />
    <glyph glyph-name="q" unicode="q" horiz-adv-x="819" 
d="M353 769q103 29 117.5 32t123.5 -27q64 -18 85 -38q33 -33 46 -146q9 -71 23 -294q16 -259 34 -414q10 -93 4.5 -127.5t-31.5 -44.5q-14 -5 -23 5t-17 51.5t-14 109t-13 189.5q-24 372 -17 410q6 35 -16 35q-24 1 -43 -32q-5 -10 -9 -21q-14 -43 -80 -116.5
t-144.5 -134.5t-125.5 -74q-39 -10 -83.5 -9t-73.5 14q-41 19 -53.5 50.5t-12.5 120.5q0 57 8.5 104t20.5 54q13 7 21.5 28t8.5 43q0 35 40.5 83.5t102.5 90.5t121 58zM606 642q-13 55 -76 76t-145 2.5t-149 -70.5q-77 -60 -111 -129t-35 -164q-1 -59 11.5 -90.5t43.5 -47.5
q34 -16 77 -13t90.5 27.5t94 58.5t86.5 79.5t69 91t41.5 93.5t2.5 86z" />
    <glyph glyph-name="r" unicode="r" horiz-adv-x="726" 
d="M466 779q75 10 140 6t80 -19q12 -12 9.5 -35t-12 -46t-26.5 -40t-32 -17q-19 0 -25.5 12t1.5 32q13 35 -39 42q-68 9 -162 -32q-24 -11 -46 -24q-93 -57 -124 -168q-30 -109 -28 -163.5t39 -198.5q25 -94 26.5 -135t-20 -62.5t-43.5 25.5q-24 49 -71 225
q-126 470 -99 547q6 16 18 12q15 -6 28.5 -46t18.5 -93q15 -165 45 -178q12 -6 23 24q7 21 13 57q16 97 101.5 179t184.5 96z" />
    <glyph glyph-name="s" unicode="s" horiz-adv-x="868" 
d="M176 680q79 41 192 55t199 -2.5t94 -57.5q7 -33 -2 -39.5t-43 7.5q-55 25 -126.5 33.5t-138 0t-123 -27t-88 -49.5t-26.5 -66t38 -62t103 -54l300 -115q172 -65 231 -121t51 -145q-6 -60 -46.5 -109t-104 -77t-139.5 -38.5t-160 4t-158 52.5q-55 29 -97.5 61t-47.5 49
q-6 17 19 7q26 -11 70 -45q76 -57 179.5 -73.5t207 12t180.5 94.5q22 19 32.5 29t19 21.5t9.5 17.5t-3 17.5t-11.5 20l-22.5 25.5q-47 54 -192.5 122t-322.5 119q-96 28 -152 68.5t-65.5 85t27 92t117.5 88.5z" />
    <glyph glyph-name="t" unicode="t" horiz-adv-x="936" 
d="M271 679q-7 35 1 50.5t33 15.5q20 0 33.5 -12.5t13.5 -30.5q0 -42 28 -115q13 -36 25 -48.5t32.5 -12.5t67.5 12q97 25 252 41q27 3 45.5 4.5t35.5 2.5t27 0t19 -2.5t12.5 -5t7 -8t2 -11t-1.5 -14.5q-5 -29 -50 -43t-169 -26q-86 -7 -156.5 -18t-82.5 -18
q-13 -8 -14.5 -43t8.5 -84q29 -136 33 -297.5t-21 -170.5q-9 -3 -20 27.5t-22 89.5t-21 137q-14 110 -29 195.5t-23 98.5q-19 31 -73 26.5t-129 -43.5q-103 -53 -105 -10q-1 14 9 41q7 18 52 41t100 37q79 20 102.5 36.5t11.5 44.5q-20 47 -34 113z" />
    <glyph glyph-name="u" unicode="u" horiz-adv-x="818" 
d="M667 652q33 20 54 23t35 -14t20.5 -53t10.5 -101q7 -128 -29.5 -277.5t-103 -271t-140.5 -169.5q-54 -38 -113 -31t-114.5 47.5t-106.5 118.5t-89 184q-57 154 -61 274t46 161q58 48 92 -27q31 -67 30 -206q-1 -132 28 -214t107 -167q42 -47 72 -56.5t63 12.5t84 88
q110 139 142 309t-34 269q-17 27 -24 40t-6.5 24.5t9 18.5t28.5 18z" />
    <glyph glyph-name="v" unicode="v" horiz-adv-x="836" 
d="M733 720q44 28 58 11q19 -23 13 -184q-1 -38 -4 -98q-12 -231 -34.5 -372t-60 -206.5t-92.5 -61.5q-24 1 -160.5 139t-270 291.5t-148.5 194.5q-12 31 9 52t54.5 19t54.5 -30q47 -65 155.5 -183t202 -208t103.5 -84q28 17 58.5 199t28.5 323q-1 81 8 134.5t25 63.5z" />
    <glyph glyph-name="w" unicode="w" horiz-adv-x="1218" 
d="M1053 1117q6 16 22 27.5t34 11.5q33 0 56 -127t23 -307q0 -66 -26 -150.5t-65 -149.5t-73 -78q-58 -22 -127 32t-127 166l-75 144l-36 -88q-24 -58 -101.5 -149.5t-158 -161t-112.5 -69.5q-39 1 -66.5 14t-51 42t-42.5 83t-35.5 128.5t-34.5 186.5q-11 66 -17 106.5
t-8.5 74.5t-1 51t8.5 28.5t17.5 15t27.5 3.5q41 0 74 -212q24 -155 37 -219.5t26.5 -99t40.5 -68.5q13 -17 19 -24.5t16 -12t16 -3.5t20 10.5t26 20.5t36 35q108 104 171 211.5t71 199.5q4 60 19.5 93t35.5 35t42.5 -28t39.5 -88q19 -63 62.5 -146.5t87 -143.5t62.5 -60
q17 0 45 52.5t49 121.5t21 111q-1 34 -10 96.5t-21.5 115.5t-17.5 102.5t1 66.5z" />
    <glyph glyph-name="x" unicode="x" horiz-adv-x="806" 
d="M586 723q53 71 96 120t53 49q72 0 18 -98q-27 -49 -84 -116q-128 -153 -150 -188q-9 -15 11.5 -72.5t58.5 -126.5q57 -99 68 -139.5t-11 -67.5q-40 -48 -63 -38t-38 82q-8 36 -31 83t-48 79l-60 76l-144 -104q-155 -113 -212 -105q-20 3 -20 24q0 11 47.5 52t113.5 86
q55 38 83 60t42.5 40.5t13.5 30.5t-14 28l-150 185q-165 200 -33 200q16 0 42 -23.5t48 -56.5q33 -51 85 -112t93.5 -100t47.5 -31q13 14 137 183z" />
    <glyph glyph-name="y" unicode="y" horiz-adv-x="826" 
d="M34 959q27 44 57 1q31 -44 41 -144q8 -68 39.5 -170t67 -177.5t53.5 -75.5q36 0 130 81t152 162q45 62 65 117t20 115q0 91 27 110q20 15 37 -33q4 -13 7 -30q62 -295 65.5 -621t-52.5 -489q-19 -55 -42 -71.5t-83 -16.5q-39 0 -76.5 10.5t-52.5 25.5q-50 50 -28 61
q19 9 81 -22l88 -45l46 108q40 93 51.5 340t-17.5 386l-24 114l-53 -85q-36 -58 -108 -131t-142.5 -123.5t-101.5 -50.5q-22 0 -49.5 12.5t-40.5 28.5q-28 33 -72 175t-71 279t-14 159z" />
    <glyph glyph-name="z" unicode="z" horiz-adv-x="807" 
d="M108 1051q83 38 198 34t166 -47q37 -31 45 -71t-17.5 -109t-83 -163t-160.5 -241q-43 -61 -65 -95.5t-32 -61.5t-7.5 -41.5t16.5 -30.5q57 -67 506 10q93 16 102 0q3 -7 -2 -21q-15 -42 -288 -84q-180 -28 -239.5 -28t-109.5 28q-46 26 -66 55t-16 70t32.5 92.5
t84.5 124.5q215 282 247 391q27 90 -47 121q-21 9 -50 14q-106 20 -176 -19q-40 -23 -62.5 -24t-41.5 18q-20 19 -6 36t72 42z" />
    <glyph glyph-name="braceleft" unicode="{" 
 />
    <glyph glyph-name="bar" unicode="|" horiz-adv-x="130" 
 />
    <glyph glyph-name="braceright" unicode="}" 
 />
    <glyph glyph-name="asciitilde" unicode="~" 
 />
    <glyph glyph-name="uni00A0" unicode="&#xa0;" horiz-adv-x="500" 
 />
    <glyph glyph-name="exclamdown" unicode="&#xa1;" 
 />
    <glyph glyph-name="cent" unicode="&#xa2;" 
 />
    <glyph glyph-name="sterling" unicode="&#xa3;" 
 />
    <glyph glyph-name="guillemotleft" unicode="&#xab;" 
 />
    <glyph glyph-name="plusminus" unicode="&#xb1;" 
 />
    <glyph glyph-name="acute" unicode="&#xb4;" 
 />
    <glyph glyph-name="guillemotright" unicode="&#xbb;" 
 />
    <glyph glyph-name="questiondown" unicode="&#xbf;" 
 />
    <glyph glyph-name="Aacute" unicode="&#xc1;" 
 />
    <glyph glyph-name="Adieresis" unicode="&#xc4;" 
 />
    <glyph glyph-name="Aring" unicode="&#xc5;" 
 />
    <glyph glyph-name="AE" unicode="&#xc6;" 
 />
    <glyph glyph-name="Eacute" unicode="&#xc9;" 
 />
    <glyph glyph-name="Iacute" unicode="&#xcd;" 
 />
    <glyph glyph-name="Ntilde" unicode="&#xd1;" 
 />
    <glyph glyph-name="Oacute" unicode="&#xd3;" 
 />
    <glyph glyph-name="Odieresis" unicode="&#xd6;" 
 />
    <glyph glyph-name="Oslash" unicode="&#xd8;" 
 />
    <glyph glyph-name="Uacute" unicode="&#xda;" 
 />
    <glyph glyph-name="Udieresis" unicode="&#xdc;" 
 />
    <glyph glyph-name="germandbls" unicode="&#xdf;" 
 />
    <glyph glyph-name="aacute" unicode="&#xe1;" 
 />
    <glyph glyph-name="adieresis" unicode="&#xe4;" 
 />
    <glyph glyph-name="aring" unicode="&#xe5;" 
 />
    <glyph glyph-name="ae" unicode="&#xe6;" 
 />
    <glyph glyph-name="eacute" unicode="&#xe9;" 
 />
    <glyph glyph-name="iacute" unicode="&#xed;" 
 />
    <glyph glyph-name="ntilde" unicode="&#xf1;" 
 />
    <glyph glyph-name="oacute" unicode="&#xf3;" 
 />
    <glyph glyph-name="odieresis" unicode="&#xf6;" 
 />
    <glyph glyph-name="oslash" unicode="&#xf8;" 
 />
    <glyph glyph-name="uacute" unicode="&#xfa;" 
 />
    <glyph glyph-name="udieresis" unicode="&#xfc;" 
 />
    <glyph glyph-name="quoteright" unicode="&#x2019;" horiz-adv-x="262" 
d="M95 518q35 13 47 3q13 -11 18.5 -86.5t1 -146.5t-16.5 -71q-22 0 -41.5 28.5t-30 70t-14 85t6 77t29.5 40.5z" />
    <glyph glyph-name="quotedblleft" unicode="&#x201c;" horiz-adv-x="492" 
d="M271 522q8 20 29.5 33.5t46.5 13.5q16 0 25 -3t15.5 -9.5t6.5 -24t-2 -39.5t-7 -64q-8 -57 -22 -106.5t-25 -61.5q-31 -33 -58 21q-31 63 -25 158q3 47 16 82zM71 578q5 9 22 13.5t35 0.5q25 -5 34.5 -47t9.5 -152q0 -54 -1.5 -85t-4 -54.5t-9.5 -33.5t-15.5 -14
t-23.5 -4q-25 0 -36 13t-15.5 48t-6.5 115q-1 73 2 131.5t9 68.5z" />
    <glyph glyph-name="Euro" unicode="&#x20ac;" 
 />
  </font>
</defs>
</svg>
